name C:\Users\u0101727\Documents\MyRepositories\upper-imu-dc\Results\main_tracking\Case_14\ABD01_linearAccelerations_groundFrame.mot
datacolumns 4
datarows 82
range 8.06000000 8.87000000
endheader 
time	radius_imu_x	radius_imu_y	radius_imu_z	
          8.06000000	         -2.89099479	         10.18328942	         -1.07201128	
          8.07000000	         -2.85129878	         10.24487854	         -1.01452770	
          8.08000000	         -2.76161985	         10.29097487	         -0.95174514	
          8.09000000	         -2.63472102	         10.32089751	         -0.89183633	
          8.10000000	         -2.48796792	         10.33645558	         -0.84103169	
          8.11000000	         -2.34157081	         10.34127186	         -0.80220022	
          8.12000000	         -2.21618471	         10.33901367	         -0.77479304	
          8.13000000	         -2.12912239	         10.33178050	         -0.75600439	
          8.14000000	         -2.08956028	         10.31955390	         -0.74236834	
          8.15000000	         -2.09457986	         10.30050689	         -0.73096109	
          8.16000000	         -2.12793791	         10.27146381	         -0.72014368	
          8.17000000	         -2.16157365	         10.22824524	         -0.70961944	
          8.18000000	         -2.15849093	         10.16669023	         -0.70051262	
          8.19000000	         -2.07664166	         10.08467420	         -0.69529285	
          8.20000000	         -1.87475884	          9.98506506	         -0.69756904	
          8.21000000	         -1.52126481	          9.87836921	         -0.71130269	
          8.22000000	         -1.00628426	          9.78284077	         -0.73900182	
          8.23000000	         -0.35359296	          9.71944053	         -0.77890089	
          8.24000000	          0.37348739	          9.70163107	         -0.82268771	
          8.25000000	          1.08036277	          9.72515162	         -0.85622776	
          8.26000000	          1.66661118	          9.76626223	         -0.86423037	
          8.27000000	          2.05644602	          9.79196747	         -0.83672306	
          8.28000000	          2.21483685	          9.77540015	         -0.77367936	
          8.29000000	          2.14442199	          9.70637588	         -0.68544417	
          8.30000000	          1.87409637	          9.59309230	         -0.58889505	
          8.31000000	          1.44952578	          9.45650937	         -0.50129889	
          8.32000000	          0.92803694	          9.32053491	         -0.43518637	
          8.33000000	          0.37551885	          9.20175463	         -0.39690680	
          8.34000000	         -0.13762659	          9.10315833	         -0.38850059	
          8.35000000	         -0.54231441	          9.01528180	         -0.41005445	
          8.36000000	         -0.77772659	          8.92464761	         -0.46038974	
          8.37000000	         -0.79968278	          8.82540444	         -0.53614501	
          8.38000000	         -0.59140184	          8.72775229	         -0.63044197	
          8.39000000	         -0.17515909	          8.65703793	         -0.73238287	
          8.40000000	          0.38119048	          8.64140203	         -0.82847421	
          8.41000000	          0.97260736	          8.69388851	         -0.90642166	
          8.42000000	          1.48531836	          8.80195393	         -0.95987591	
          8.43000000	          1.83251185	          8.93343771	         -0.99072533	
          8.44000000	          1.97436890	          9.05397508	         -1.00671174	
          8.45000000	          1.91586472	          9.14291667	         -1.01643540	
          8.46000000	          1.69416573	          9.19967844	         -1.02592172	
          8.47000000	          1.36504232	          9.23991563	         -1.03830965	
          8.48000000	          0.98933682	          9.28536026	         -1.05506028	
          8.49000000	          0.62047619	          9.35339116	         -1.07678646	
          8.50000000	          0.29596412	          9.45124101	         -1.10304092	
          8.51000000	          0.03428860	          9.57577504	         -1.13144801	
          8.52000000	         -0.16368749	          9.71685227	         -1.15705222	
          8.53000000	         -0.31045627	          9.86127962	         -1.17306682	
          8.54000000	         -0.42622055	          9.99640903	         -1.17255765	
          8.55000000	         -0.53246957	         10.11221450	         -1.15110747	
          8.56000000	         -0.64489884	         10.20293601	         -1.10873264	
          8.57000000	         -0.76810559	         10.26767940	         -1.05038267	
          8.58000000	         -0.89434621	         10.30982934	         -0.98472216	
          8.59000000	         -1.00712598	         10.33530123	         -0.92147274	
          8.60000000	         -1.08771347	         10.35034317	         -0.86832777	
          8.61000000	         -1.12095606	         10.35996833	         -0.82879770	
          8.62000000	         -1.09730819	         10.36783054	         -0.80240663	
          8.63000000	         -1.01161225	         10.37728328	         -0.78709118	
          8.64000000	         -0.86261614	         10.39212799	         -0.78178941	
          8.65000000	         -0.65617998	         10.41570142	         -0.78703333	
          8.66000000	         -0.41035120	         10.44854790	         -0.80305861	
          8.67000000	         -0.15634728	         10.48671742	         -0.82685960	
          8.68000000	          0.06915971	         10.52295931	         -0.85042729	
          8.69000000	          0.23682619	         10.55056374	         -0.86173267	
          8.70000000	          0.33365957	         10.56700195	         -0.84835876	
          8.71000000	          0.36420908	         10.57515290	         -0.80214585	
          8.72000000	          0.34589893	         10.58204076	         -0.72266590	
          8.73000000	          0.30194440	         10.59608816	         -0.61777786	
          8.74000000	          0.25475510	         10.62414913	         -0.50103968	
          8.75000000	          0.22106106	         10.66922265	         -0.38716401	
          8.76000000	          0.20837575	         10.72904122	         -0.28714207	
          8.77000000	          0.21265304	         10.79544710	         -0.20459148	
          8.78000000	          0.21890248	         10.85515861	         -0.13530604	
          8.79000000	          0.20613253	         10.89252610	         -0.07075147	
          8.80000000	          0.15611259	         10.89430232	         -0.00467053	
          8.81000000	          0.06205576	         10.85472356	          0.06056360	
          8.82000000	         -0.06767534	         10.77827644	          0.11188886	
          8.83000000	         -0.21303522	         10.67853310	          0.12959853	
          8.84000000	         -0.35080707	         10.57364508	          0.09567261	
          8.85000000	         -0.46316958	         10.48092288	          0.00203250	
          8.86000000	         -0.54203177	         10.41277758	         -0.14490661	
          8.87000000	         -0.58875575	         10.37521383	         -0.32559037	
